<svg width="24" height="24" viewBox="0 0 24 24" fill="none" xmlns="http://www.w3.org/2000/svg">
<path d="M16 3H8C6.4087 3 4.88258 3.63214 3.75736 4.75736C2.63214 5.88258 2 7.4087 2 9V15C2 16.5913 2.63214 18.1174 3.75736 19.2426C4.88258 20.3679 6.4087 21 8 21H16C17.5913 21 19.1174 20.3679 20.2426 19.2426C21.3679 18.1174 22 16.5913 22 15V9C22 7.4087 21.3679 5.88258 20.2426 4.75736C19.1174 3.63214 17.5913 3 16 3ZM16.78 9.63L15.38 11.38C14.9744 11.8865 14.46 12.2952 13.8748 12.5757C13.2897 12.8561 12.6489 13.0012 12 13C11.3507 13.0033 10.7092 12.8593 10.1237 12.5787C9.53823 12.298 9.02408 11.8882 8.62 11.38L7.21 9.63C7.12749 9.52709 7.06616 9.40888 7.02953 9.28217C6.9929 9.15546 6.9817 9.02276 6.99657 8.8917C7.01144 8.76065 7.05209 8.63382 7.11618 8.51854C7.18027 8.40326 7.26653 8.3018 7.37 8.22C7.47291 8.13749 7.59112 8.07616 7.71783 8.03953C7.84454 8.00289 7.97724 7.99169 8.1083 8.00656C8.23936 8.02144 8.36618 8.06209 8.48146 8.12618C8.59674 8.19027 8.6982 8.27653 8.78 8.38L10.18 10.13C10.3963 10.4049 10.673 10.6264 10.9885 10.7772C11.3041 10.9281 11.6502 11.0043 12 11C12.3481 11.0028 12.6922 10.9258 13.006 10.775C13.3197 10.6242 13.5947 10.4036 13.81 10.13L15.21 8.38C15.2918 8.27653 15.3933 8.19027 15.5085 8.12618C15.6238 8.06209 15.7506 8.02144 15.8817 8.00656C16.0128 7.99169 16.1455 8.00289 16.2722 8.03953C16.3989 8.07616 16.5171 8.13749 16.62 8.22C16.7235 8.3018 16.8097 8.40326 16.8738 8.51854C16.9379 8.63382 16.9786 8.76065 16.9934 8.8917C17.0083 9.02276 16.9971 9.15546 16.9605 9.28217C16.9238 9.40888 16.8625 9.52709 16.78 9.63Z" fill="#3766ED"/>
</svg>
