<svg width="24" height="24" viewBox="0 0 24 24" fill="none" xmlns="http://www.w3.org/2000/svg">
<path d="M19.724 18.2668C18.4507 19.8514 16.7236 21.01 14.7735 21.5879C12.8234 22.1657 10.7432 22.1352 8.81091 21.5005C6.87861 20.8657 5.18627 19.657 3.96006 18.0358C2.73385 16.4145 2.03218 14.4581 1.94883 12.4278L1.64908 12.7273C1.45793 12.8908 1.21206 12.9762 0.960593 12.9665C0.709127 12.9568 0.470593 12.8527 0.292647 12.6749C0.114701 12.4972 0.0104583 12.2589 0.000745244 12.0077C-0.00896782 11.7565 0.076556 11.5109 0.240246 11.3199L2.23858 9.32369C2.42579 9.13779 2.67903 9.03345 2.943 9.03345C3.20696 9.03345 3.4602 9.13779 3.64741 9.32369L5.64575 11.3199C5.83184 11.5069 5.93631 11.7599 5.93631 12.0236C5.93631 12.2873 5.83184 12.5403 5.64575 12.7273C5.45854 12.9132 5.2053 13.0175 4.94133 13.0175C4.67736 13.0175 4.42412 12.9132 4.23692 12.7273L3.94716 12.4378C4.03086 14.0556 4.60516 15.6097 5.5938 16.8937C6.58245 18.1778 7.93866 19.1311 9.48242 19.6271C11.0262 20.1231 12.6844 20.1383 14.2371 19.6707C15.7897 19.2032 17.1632 18.2749 18.1753 17.0092C18.258 16.9069 18.36 16.822 18.4755 16.7591C18.5911 16.6963 18.7179 16.6568 18.8487 16.6429C18.9795 16.629 19.1118 16.6409 19.238 16.6781C19.3642 16.7153 19.4818 16.7769 19.5841 16.8595C19.6865 16.942 19.7715 17.0439 19.8345 17.1594C19.8974 17.2748 19.9369 17.4014 19.9508 17.5321C19.9648 17.6628 19.9528 17.795 19.9156 17.921C19.8784 18.0471 19.8167 18.1646 19.734 18.2668H19.724Z" fill="#9799A1"/>
<path d="M23.6208 12.7274L21.6225 14.7236C21.5291 14.8161 21.4184 14.8893 21.2967 14.939C21.1749 14.9886 21.0446 15.0138 20.9131 15.013C20.7816 15.0138 20.6513 14.9886 20.5295 14.939C20.4078 14.8893 20.2971 14.8161 20.2037 14.7236L18.2054 12.7274C18.0417 12.5364 17.9561 12.2908 17.9658 12.0396C17.9756 11.7884 18.0798 11.5501 18.2577 11.3724C18.4357 11.1946 18.6742 11.0905 18.9257 11.0808C19.1772 11.0711 19.423 11.1565 19.6142 11.32L19.894 11.5995C19.8103 9.98171 19.236 8.42763 18.2473 7.14357C17.2587 5.8595 15.9024 4.90619 14.3587 4.41019C12.8149 3.9142 11.1567 3.89898 9.60403 4.36656C8.05141 4.83415 6.67789 5.76241 5.6658 7.02812C5.50094 7.23378 5.26136 7.36598 4.99932 7.3959C4.73728 7.42581 4.47403 7.35102 4.26697 7.18782C4.16433 7.10545 4.07899 7.00363 4.01587 6.88821C3.95275 6.77279 3.91309 6.64605 3.89916 6.51527C3.88523 6.38449 3.89731 6.25224 3.93472 6.12614C3.97212 6.00004 4.03409 5.88257 4.11709 5.78047C5.38699 4.18032 7.11766 3.00776 9.07559 2.42097C11.0335 1.83419 13.1245 1.86142 15.0665 2.49899C17.0084 3.13656 18.7079 4.35379 19.9356 5.98647C21.1633 7.61914 21.8602 9.5887 21.9322 11.6294L22.242 11.32C22.3316 11.2155 22.4418 11.1307 22.5658 11.0708C22.6897 11.0108 22.8247 10.9772 22.9623 10.9719C23.0999 10.9666 23.2372 10.9897 23.3654 11.0399C23.4936 11.0901 23.6101 11.1662 23.7074 11.2635C23.8048 11.3607 23.881 11.4771 23.9312 11.6052C23.9815 11.7332 24.0046 11.8703 23.9993 12.0078C23.994 12.1452 23.9603 12.2801 23.9003 12.4039C23.8404 12.5278 23.7554 12.6379 23.6508 12.7274H23.6208Z" fill="#9799A1"/>
</svg>
