<svg width="24" height="24" viewBox="0 0 24 24" fill="none" xmlns="http://www.w3.org/2000/svg">
<path d="M20.9299 9.6L20.3899 9.1C20.2517 8.97417 20.1432 8.81915 20.0722 8.64619C20.0013 8.47323 19.9698 8.28666 19.9799 8.1V7.37C19.9952 6.92418 19.9188 6.47996 19.7555 6.06485C19.5921 5.64974 19.3454 5.27256 19.0304 4.95667C18.7155 4.64077 18.339 4.39287 17.9244 4.22832C17.5098 4.06376 17.0658 3.98606 16.6199 4H15.8799C15.6929 4.01307 15.5055 3.98288 15.332 3.91178C15.1586 3.84067 15.0039 3.73057 14.8799 3.59L14.3799 3.05C14.0773 2.72004 13.7095 2.45638 13.2999 2.27566C12.8903 2.09494 12.4476 2.00108 11.9999 2C11.5461 2.0025 11.0978 2.09885 10.683 2.283C10.2683 2.46714 9.89611 2.73509 9.58991 3.07L9.09991 3.61C8.97545 3.74997 8.82066 3.85966 8.64736 3.93072C8.47405 4.00177 8.28681 4.03231 8.09991 4.02L7.37991 4C6.92838 3.9833 6.4782 4.05894 6.05692 4.22229C5.63565 4.38564 5.25215 4.63327 4.92991 4.95C4.6136 5.26957 4.36749 5.65167 4.20735 6.07183C4.04721 6.49199 3.97655 6.94096 3.99991 7.39V8.12C4.01298 8.30698 3.98279 8.49445 3.91169 8.66788C3.84058 8.8413 3.73048 8.99601 3.58991 9.12L3.04991 9.62C2.71614 9.92543 2.4496 10.297 2.26725 10.711C2.08489 11.1251 1.99072 11.5726 1.99072 12.025C1.99072 12.4774 2.08489 12.9249 2.26725 13.339C2.4496 13.753 2.71614 14.1246 3.04991 14.43L3.58991 14.93C3.73108 15.0535 3.84161 15.2081 3.91277 15.3817C3.98392 15.5552 4.01375 15.7429 3.99991 15.93V16.66C3.97631 17.1138 4.04872 17.5675 4.21243 17.9914C4.37613 18.4153 4.62743 18.7999 4.94991 19.12C5.27391 19.4241 5.65649 19.659 6.07428 19.8103C6.49208 19.9616 6.93633 20.0261 7.37991 20H8.10991C8.29657 19.9899 8.48314 20.0214 8.6561 20.0923C8.82906 20.1632 8.98408 20.2718 9.10991 20.41L9.59991 20.95C9.90534 21.2838 10.2769 21.5503 10.691 21.7327C11.105 21.915 11.5525 22.0092 12.0049 22.0092C12.4573 22.0092 12.9048 21.915 13.3189 21.7327C13.7329 21.5503 14.1045 21.2838 14.4099 20.95L14.9099 20.41C15.0339 20.2694 15.1886 20.1593 15.362 20.0882C15.5355 20.0171 15.7229 19.9869 15.9099 20H16.6499C17.1025 20.023 17.5548 19.9507 17.9777 19.788C18.4006 19.6252 18.7847 19.3756 19.1051 19.0552C19.4255 18.7348 19.6752 18.3507 19.8379 17.9278C20.0006 17.5049 20.0729 17.0526 20.0499 16.6V15.87C20.0412 15.6835 20.0734 15.4974 20.1442 15.3246C20.215 15.1519 20.3228 14.9967 20.4599 14.87L20.9999 14.38C21.3364 14.0762 21.6054 13.7052 21.7896 13.2909C21.9737 12.8767 22.0688 12.4283 22.0688 11.975C22.0688 11.5217 21.9737 11.0733 21.7896 10.6591C21.6054 10.2448 21.3364 9.87378 20.9999 9.57L20.9299 9.6ZM15.6999 10.71L11.6999 14.71C11.5136 14.8947 11.2622 14.9989 10.9999 15C10.8683 15.0008 10.7378 14.9755 10.616 14.9258C10.4942 14.876 10.3834 14.8027 10.2899 14.71L8.28991 12.71C8.12608 12.5187 8.04048 12.2726 8.0502 12.0209C8.05992 11.7693 8.16425 11.5305 8.34235 11.3524C8.52044 11.1743 8.75918 11.07 9.01086 11.0603C9.26253 11.0506 9.50861 11.1362 9.69991 11.3L10.9999 12.59L14.2899 9.3C14.4773 9.11375 14.7307 9.00921 14.9949 9.00921C15.2591 9.00921 15.5125 9.11375 15.6999 9.3C15.8862 9.48736 15.9907 9.74081 15.9907 10.005C15.9907 10.2692 15.8862 10.5226 15.6999 10.71Z" fill="#3766ED"/>
</svg>
