<svg width="24" height="24" viewBox="0 0 24 24" fill="none" xmlns="http://www.w3.org/2000/svg">
<path d="M19.26 5.67889L14.99 2.88699C14.0964 2.30803 13.0545 2 11.99 2C10.9254 2 9.88361 2.30803 8.99 2.88699L4.72 5.67889C3.88811 6.22234 3.2041 6.964 2.72936 7.83729C2.25461 8.71058 2.004 9.68816 2 10.6823V16.9966C2 18.3236 2.52678 19.5962 3.46447 20.5345C4.40215 21.4729 5.67392 22 7 22H17C18.3261 22 19.5979 21.4729 20.5355 20.5345C21.4732 19.5962 22 18.3236 22 16.9966V10.7023C21.9972 9.70295 21.7451 8.7201 21.2666 7.8429C20.7881 6.96569 20.0984 6.22187 19.26 5.67889ZM14.94 16.9966H8.94C8.67478 16.9966 8.42043 16.8912 8.23289 16.7035C8.04535 16.5158 7.94 16.2613 7.94 15.9959C7.94 15.7305 8.04535 15.476 8.23289 15.2883C8.42043 15.1007 8.67478 14.9952 8.94 14.9952H14.94C15.2052 14.9952 15.4596 15.1007 15.6471 15.2883C15.8346 15.476 15.94 15.7305 15.94 15.9959C15.94 16.2613 15.8346 16.5158 15.6471 16.7035C15.4596 16.8912 15.2052 16.9966 14.94 16.9966Z" fill="#F43F5E"/>
</svg>
